<svg width="27" height="26" viewBox="0 0 27 26" fill="none" xmlns="http://www.w3.org/2000/svg">
<path d="M18.0893 0H8.31899C3.82302 0 0.177063 3.63838 0.177063 8.125V17.875C0.177063 22.3616 3.82302 26 8.31899 26H18.0893C22.5853 26 26.2312 22.3616 26.2312 17.875V8.125C26.2312 3.63838 22.5853 0 18.0893 0ZM23.7887 17.875C23.7887 21.0113 21.2321 23.5625 18.0893 23.5625H8.31899C5.17621 23.5625 2.61964 21.0113 2.61964 17.875V8.125C2.61964 4.98875 5.17621 2.4375 8.31899 2.4375H18.0893C21.2321 2.4375 23.7887 4.98875 23.7887 8.125V17.875Z" fill="#C2DDE4"/>
<path d="M13.7052 6C10.1081 6 7.19165 8.91037 7.19165 12.5C7.19165 16.0896 10.1081 19 13.7052 19C17.3023 19 20.2187 16.0896 20.2187 12.5C20.2187 8.91037 17.3023 6 13.7052 6ZM13.7052 16.5625C11.4613 16.5625 9.63423 14.7392 9.63423 12.5C9.63423 10.2591 11.4613 8.4375 13.7052 8.4375C15.9491 8.4375 17.7762 10.2591 17.7762 12.5C17.7762 14.7392 15.9491 16.5625 13.7052 16.5625Z" fill="#C2DDE4"/>
<path d="M20.0846 6.73224C20.5639 6.73224 20.9525 6.34446 20.9525 5.86612C20.9525 5.38777 20.5639 5 20.0846 5C19.6053 5 19.2167 5.38777 19.2167 5.86612C19.2167 6.34446 19.6053 6.73224 20.0846 6.73224Z" fill="#C2DDE4"/>
</svg>
